-
http:// www . torrentkit. com        
http:// www .torrentkit. com       the fast  and The Hottest Private Tracker on the net

Please Seed back to make the speed Faster!!!

and don't forget to visit      ...... www .torrentkit .com..........
-[pre][center][IMG]http://lookpic.com/c1/i2/2655/U5xHeyJH.jpeg[/IMG]

[color=red][size=4]Tron Legacy (2010) BDRip 720P XViD AC3 DiVERSiTY[/b][/size][/color][/center]

[info]
[color=red][b]General[/b][/color]
Format                           : AVI
Format/Info                      : Audio Video Interleave
Format profile                   : OpenDML
Format settings                  : rec
File size                        : 2.58 GiB
Duration                         : 2h 5mn
Overall bit rate                 : 2 953 Kbps
Writing application              : AVI-Mux GUI 1.17.8.3, Feb 16 201019:42:50
Source                           : Tron Legacy 2010 BluRay 1080p BluRay AVC DTS-HD MA7.1 DIY-wq561103@beAst

[color=red][b]Video[/b][/color]
Format                           : MPEG-4 Visual
Format profile                   : Advanced Simple@L5
Format settings, BVOP            : 2
Format settings, QPel            : No
Format settings, GMC             : 3 warppoints
Format settings, Matrix          : Default (H.263)
Codec ID                         : XVID
Codec ID/Hint                    : XviD
Duration                         : 2h 5mn
Bit rate                         : 2 500 Kbps
Width                            : 1 280 pixels
Height                           : 544 pixels
Display aspect ratio             : 2.35:1
Frame rate                       : 23.976 fps
Color space                      : YUV
Chroma subsampling               : 4:2:0
Bit depth                        : 8 bits
Scan type                        : Progressive
Compression mode                 : Lossy
Bits/(Pixel*Frame)               : 0.150
Stream size                      : 2.18 GiB (85%)
Writing library                  : XviD 1.2.1 (UTC 2008-12-04)

[color=red][b]Audio[/b][/color]
Format                           : AC-3
Format/Info                      : Audio Coding 3
Mode extension                   : CM (complete main)
Codec ID                         : 2000
Duration                         : 2h 5mn
Bit rate mode                    : Constant
Bit rate                         : 448 Kbps
Channel(s)                       : 6 channels
Channel positions                : Front: L C R, Side: L R, LFE
Sampling rate                    : 48.0 KHz
Bit depth                        : 16 bits
Compression mode                 : Lossy
Stream size                      : 401 MiB (15%)
Alignment                        : Aligned on interleaves
Interleave, duration             : 64 ms (1.53 video frames)
Interleave, preload duration     : 192 ms

Subtitle                         : English, French, Spanish (soft subs)
IMDb                             : http://www.imdb.com/title/tt1104001/

[cast]
Jeff Bridges                     : Kevin Flynn / Clu
Garrett Hedlund                  : Sam Flynn
Olivia Wilde                     : Quorra
Bruce Boxleitner                 : Alan Bradley / Tron
James Frain                      : Jarvis
Beau Garrett                     : Gem

[plot]
The son of a virtual world designer goes looking for his father and ends
up inside the digital world that his father designed. He meets his father's
creation turned bad and a unique ally who was born inside the digital domain
of The Grid.

[note]

[color=red][b]Sample Included.

Enjoy!

Don't forget to thank the uploader.

Greets to:[/b][/color]

TOXiC, FLAWL3SS, DiGiTAL iNK, iNiTiALanIme, RDX, Zia, Merwais, Smelly,
Hibees,Toon, Tinners, 202122, PureDarkness, mgw012, Skrufern...

... and everyone who spends their own time and cash to share and make P2P great. :clap:

[screens]
[center][IMG]http://lookpic.com/c1/i2/368/oCJlbfd.png[/IMG]
[IMG]http://lookpic.com/c1/i2/3422/f1rbDNRJ.png[/IMG]
[IMG]http://lookpic.com/c1/i2/703/ZYLiTfwF.png[/IMG]
[IMG]http://lookpic.com/c1/i2/3671/95QeiiOu.png[/IMG][/center][/pre]